<svg xmlns="http://www.w3.org/2000/svg" width="109" height="34"><defs><linearGradient id="a" x1="43.786%" x2="58.702%" y1="23.653%" y2="87.003%"><stop offset="7.469%" stop-color="#5C2483" stop-opacity=".5"/><stop offset="70%" stop-color="#5C2483"/></linearGradient><linearGradient id="b" x1="69.664%" x2="30.869%" y1="83.587%" y2="2.886%"><stop offset="7.469%" stop-color="#5C2483" stop-opacity=".5"/><stop offset="60%" stop-color="#5C2483"/></linearGradient></defs><g fill="none"><path fill="url(#a)" d="M31.157 21.622s-.716 7.146-.859 8.388h2.394s.286-1.935.94-7.432c.124-.997.287-2.992.287-2.992l-2.762 2.036z"/><path fill="url(#b)" d="M24.652 3.237c3.069-.753 5.278.652 6.28 6.8.287 1.792.41 3.807.43 5.884.92-.733 1.82-1.446 2.66-2.117-.082-2.464-.369-4.826-.86-7.004C32.1 2.077 29.05.061 25.962.061c-.41 0-.84.04-1.31.122v3.054z"/><path fill="#5C2483" d="M25.961.04c-3.58 0-10.106 3.055-16.694 10.2C1.821 18.304.02 24.636.02 27.954c0 3.319 2.23 5.945 6.26 5.945 4.03 0 10.496-2.524 20.11-8.978 9.616-6.454 18.904-14.496 18.904-14.496l-2.005-4.58c-2.066 1.648-11.15 10.342-23.26 18.119-11.641 7.451-15.344 6.23-15.835 5.273-.43-.814-1.289-3.665 3.416-11.238C12.316 10.425 19.66 5.07 23.404 3.625c.92-.367 1.78-.57 2.578-.59V.04h-.02zm80.445 16.148v14.479h2.41V16.188h-1.205zm-44.234 6.375v-1.959h-7.76v2.167h4.86l-5.003 5.854.878 2.042h7.189V28.5h-5.29zm-16.623-6.375l-6.148 14.478h2.716l1.41-3.417h6.412l1.409 3.417h2.716l-6.126-14.479h-2.39zm-1.083 8.832l2.267-5.48L49 25.02h-4.534zm51.791-4.645c-3.064 0-5.065 2.25-5.065 5.25 0 3.104 1.98 5.27 5.024 5.27 1.858 0 3.37-.77 4.309-2.082l-1.777-1.355c-.53.792-1.41 1.25-2.512 1.25-1.47 0-2.45-.958-2.614-2.375h7.352v-1.02c0-3.126-1.797-4.938-4.717-4.938zm-2.594 4.188c.265-1.396 1.184-2.25 2.491-2.25 1.267 0 2.186.75 2.39 2.25h-4.881zm8.679 6.104h2.41V16.188h-2.41v7.25zm-16.521-8.084c1.103 0 2.022.625 2.471 1.709l2.083-1.146c-.858-1.771-2.185-2.792-4.615-2.792-3.084 0-5.126 2.167-5.126 5.25 0 3.084 2.001 5.271 5.064 5.271 2.186 0 3.778-1.042 4.677-2.73L88.292 27c-.51 1.02-1.327 1.646-2.471 1.646-1.573 0-2.737-1.354-2.737-3.063 0-1.666 1.164-3 2.737-3zm-9.129-.52h-.163v-1.459h-2.41v10.062h2.41V26c0-1.813.96-3.23 2.43-3.23.368 0 .735.043 1.083.168v-2.396c-.409-.084-.613-.084-.838-.084-1.164 0-2.144.667-2.512 1.604zm-8.597-1.688c-3.064 0-5.065 2.25-5.065 5.25 0 3.104 1.981 5.27 5.024 5.27 1.858 0 3.37-.77 4.309-2.082l-1.777-1.355c-.53.792-1.409 1.25-2.512 1.25-1.47 0-2.45-.958-2.614-2.375h7.332v-1.02c0-3.126-1.777-4.938-4.697-4.938zm-2.594 4.188c.266-1.396 1.185-2.25 2.492-2.25 1.266 0 2.185.75 2.389 2.25h-4.881z"/></g></svg>