<svg xmlns="http://www.w3.org/2000/svg" xmlns:xlink="http://www.w3.org/1999/xlink" width="24" height="18"><defs><rect id="a" width="24" height="18" x=".289" y=".804" rx="2"/></defs><g fill="none" fill-rule="evenodd" transform="translate(-.29 -.804)"><mask id="b" fill="#fff"><use xlink:href="#a"/></mask><use fill="#FFF" xlink:href="#a"/><path fill="#0A17A7" d="M.289.804h24v18h-24z" mask="url(#b)"/><path fill="#FFF" d="M25.389-1.044l1.278 2.131-8.1 6.145h5.722v6.429h-5.72l8.098 6.144-1.278 2.132-10.243-7.772v7.21H9.432v-7.21L-.81 21.937l-1.278-2.132 8.097-6.144H.289V7.232h5.72l-8.097-6.145L-.81-1.044 9.432 6.728v-7.21h5.714v7.21l10.243-7.772z" mask="url(#b)"/><path stroke="#DB1F35" stroke-linecap="round" stroke-width=".571" d="M16.29 6.91l10.856-8.035" mask="url(#b)"/><path stroke="#DB1F35" stroke-linecap="round" stroke-width=".571" d="M17.443 21.391l9.732-7.379" mask="url(#b)" transform="matrix(1 0 0 -1 0 35.403)"/><path stroke="#DB1F35" stroke-linecap="round" stroke-width=".571" d="M7.151 6.889L-3-.808" mask="url(#b)"/><path stroke="#DB1F35" stroke-linecap="round" stroke-width=".571" d="M8.252 22.317L-3 13.923" mask="url(#b)" transform="matrix(1 0 0 -1 0 36.24)"/><path fill="#E6273E" d="M.289 12.375h10.286v7.714h3.429v-7.714h10.285V8.518H14.004V.804h-3.429v7.714H.289z" mask="url(#b)"/></g></svg>