<svg xmlns="http://www.w3.org/2000/svg" xmlns:xlink="http://www.w3.org/1999/xlink" width="25" height="24"><defs><path id="a" d="M10.675 4.956L1.892.148c-.249-.135-.478-.167-.664-.11L8.42 7.202l2.254-2.245"/><path id="b" d="M.787.799l.002 12.82c0 .404.167.669.427.757L8.42 7.202 1.227.039C.96.122.787.39.787.799z"/><path id="c" d="M1.216 14.376c.187.063.421.034.676-.106l8.793-4.814-2.264-2.254-7.205 7.174"/></defs><g fill="none" fill-rule="evenodd" opacity=".5" transform="translate(5.5 5)"><use fill="#FEFEFE" xlink:href="#a"/><path fill="#B6B6B6" d="M10.686 9.456l2.998-1.642c.608-.334.608-.877 0-1.21l-3.009-1.648-2.254 2.245 2.265 2.255"/><use fill="#D8D8D8" xlink:href="#b"/><use fill="#818181" xlink:href="#c"/></g></svg>