<svg xmlns="http://www.w3.org/2000/svg" width="24" height="24"><defs><linearGradient id="a" x1="61.034%" x2="26.503%" y1="4.948%" y2="71.907%"><stop offset="0%" stop-color="#00A0FF"/><stop offset="1%" stop-color="#00A1FF"/><stop offset="26%" stop-color="#00BEFF"/><stop offset="51%" stop-color="#00D2FF"/><stop offset="76%" stop-color="#00DFFF"/><stop offset="100%" stop-color="#00E3FF"/></linearGradient><linearGradient id="b" x1="107.685%" x2="-130.64%" y1="50%" y2="50%"><stop offset="0%" stop-color="#FFE000"/><stop offset="41%" stop-color="#FFBD00"/><stop offset="78%" stop-color="orange"/><stop offset="100%" stop-color="#FF9C00"/></linearGradient><linearGradient id="c" x1="86.219%" x2="-50.15%" y1="30.911%" y2="135.988%"><stop offset="0%" stop-color="#FF3A44"/><stop offset="100%" stop-color="#C31162"/></linearGradient><linearGradient id="d" x1="-18.754%" x2="42.121%" y1="-11.832%" y2="35.095%"><stop offset="0%" stop-color="#32A071"/><stop offset="7%" stop-color="#2DA771"/><stop offset="48%" stop-color="#15CF74"/><stop offset="80%" stop-color="#06E775"/><stop offset="100%" stop-color="#00F076"/></linearGradient></defs><g fill="none"><path fill="url(#a)" d="M.864.324a1.2 1.2 0 00-.276.84v13.272a1.2 1.2 0 00.276.84l.042.042L8.34 7.89v-.174L.906.282.864.324z" transform="translate(5 4)"/><path fill="url(#b)" d="M10.8 10.368L8.34 7.89v-.174l2.46-2.484.054.03L13.8 6.936c.84.474.84 1.254 0 1.734l-2.934 1.668-.066.03z" transform="translate(5 4)"/><path fill="url(#c)" d="M10.872 10.332L8.34 7.8.864 15.276a.978.978 0 001.248.036l8.766-4.98" transform="translate(5 4)"/><path fill="url(#d)" d="M10.872 5.268L2.106.288A.977.977 0 00.858.324L8.34 7.8l2.532-2.532z" transform="translate(5 4)"/><path fill="#000" d="M15.8 14.278l-8.694 4.95a1.002 1.002 0 01-1.2 0l-.042.042.042.042a.996.996 0 001.2 0l8.766-4.98-.072-.054z" opacity=".2"/><path fill="#000" d="M5.864 19.192a1.2 1.2 0 01-.276-.84v.09a1.2 1.2 0 00.276.84l.042-.042-.042-.048zM18.8 12.58l-3 1.698.054.054 2.946-1.668c.34-.16.57-.49.6-.864-.068.339-.29.627-.6.78z" opacity=".12"/><path fill="#FFF" d="M7.106 4.372L18.8 11.02c.31.153.532.441.6.78a1.048 1.048 0 00-.6-.864L7.106 4.288c-.84-.474-1.524-.078-1.524.882v.09c.018-.966.69-1.362 1.524-.888z" opacity=".25"/></g></svg>